# xmcd
#
# Track frame offsets: 
#        150
#        13663
#        30973
#        43685
#        56578
#        67248
#        70985
#        87678
#        99565
#        110433
#        126533
#        139038
#
# Disc length: 2056 seconds
#
# Revision: 3
# Processed by: cddbd v1.5.2PL0 Copyright (c) Steve Scherf et al.
# Submitted via: ExactAudioCopyFreeDBPlugin 1.0
#
DISCID=b008060c
DTITLE=Bobby Womack - Bobby Womack:  The Collection [BCM Records] [box
DTITLE=set]
DYEAR=1990
DGENRE=Soul
TTITLE0=Nobody Wants You When You're Down and Out
TTITLE1=I'm Through Trying to Prove My Love to You
TTITLE2=If You Can't Give Her Love Give Her Up
TTITLE3=That's Heaven to Me
TTITLE4=Medley #1:  Holdin' on to My Baby's Love
TTITLE5=Medley #1 (continued):  Nobody
TTITLE6=Medley #2:  Facts of Life
TTITLE7=Medley #2 (continued):  He'll Be There When the Sun Goes Down
TTITLE8=Can't Stop a Man in Love
TTITLE9=The Look of Love
TTITLE10=Natural Man
TTITLE11=All Along the Watchtower
EXTD=
EXTT0=
EXTT1=
EXTT2=
EXTT3=
EXTT4=
EXTT5=
EXTT6=
EXTT7=
EXTT8=
EXTT9=
EXTT10=
EXTT11=
PLAYORDER=
